<svg width="72" height="50" viewBox="0 0 72 50" fill="none" xmlns="http://www.w3.org/2000/svg">
<path d="M6.31713 46.9492H11.4343V49H6.31713C4.90848 49 3.67232 48.509 2.69489 47.498C1.68871 46.487 1.2 45.2738 1.2 43.8585C1.2 42.4431 1.68871 41.2011 2.69489 40.219C3.70107 39.208 4.90848 38.717 6.31713 38.717H11.4343V40.7678H6.31713C5.45469 40.7678 4.73599 41.0566 4.13229 41.6632C3.52858 42.2698 3.2411 42.9919 3.2411 43.8585C3.2411 44.725 3.52858 45.4472 4.13229 46.0537C4.73599 46.6314 5.45469 46.9492 6.31713 46.9492Z" fill="#009FE3" stroke="#009FE3" stroke-width="0.5" stroke-miterlimit="10"/>
<path d="M16.4364 49C15.0278 49 13.7916 48.509 12.8142 47.498C11.808 46.487 11.3193 45.2738 11.3193 43.8585C11.3193 42.4431 11.808 41.2011 12.8142 40.219C13.8203 39.208 15.0278 38.717 16.4364 38.717C17.8451 38.717 19.0812 39.208 20.0586 40.219C21.0648 41.23 21.5535 42.4431 21.5535 43.8585C21.5535 45.2738 21.0648 46.5159 20.0586 47.498C19.0525 48.509 17.8451 49 16.4364 49ZM16.4364 46.9492C17.2988 46.9492 18.0175 46.6603 18.6213 46.0537C19.225 45.4472 19.5124 44.725 19.5124 43.8585C19.5124 42.9919 19.225 42.2698 18.6213 41.6632C18.0175 41.0566 17.2988 40.7678 16.4364 40.7678C15.574 40.7678 14.8553 41.0566 14.2516 41.6632C13.6479 42.2698 13.3604 42.9919 13.3604 43.8585C13.3604 44.725 13.6479 45.4472 14.2516 46.0537C14.8553 46.6314 15.574 46.9492 16.4364 46.9492Z" fill="#009FE3" stroke="#009FE3" stroke-width="0.5" stroke-miterlimit="10"/>
<path d="M24.8021 44.8695V49H22.761V38.6881H24.8021V42.8186H30.9541V38.6881H32.9952V49H30.9541V44.8695H24.8021Z" fill="#009FE3" stroke="#009FE3" stroke-width="0.5" stroke-miterlimit="10"/>
<path d="M45.5293 38.6881V40.7389H37.3074V46.9203H45.5293V48.9711H35.2663V38.6592H45.5293V38.6881ZM45.5293 44.8695H39.8947V42.8186H45.5293V44.8695Z" fill="#009FE3" stroke="#009FE3" stroke-width="0.5" stroke-miterlimit="10"/>
<path d="M54.6712 49H47.4842V38.6881H54.6712C56.0798 38.6881 57.316 39.1791 58.2934 40.1901C59.2996 41.2011 59.7883 42.4142 59.7883 43.8296C59.7883 45.245 59.2996 46.487 58.2934 47.4691C57.2872 48.509 56.0798 49 54.6712 49ZM49.5253 46.9492H54.6424C55.5049 46.9492 56.2236 46.6603 56.8273 46.0537C57.431 45.4472 57.7184 44.725 57.7184 43.8585C57.7184 42.9919 57.431 42.2698 56.8273 41.6632C56.2236 41.0566 55.5049 40.7678 54.6424 40.7678H49.5253V46.9492Z" fill="#009FE3" stroke="#009FE3" stroke-width="0.5" stroke-miterlimit="10"/>
<path d="M65.8829 49C64.4742 49 63.2381 48.509 62.2606 47.498C61.2545 46.487 60.7657 45.2738 60.7657 43.8585C60.7657 42.4431 61.2545 41.2011 62.2606 40.219C63.2668 39.208 64.4742 38.717 65.8829 38.717C67.2915 38.717 68.5277 39.208 69.5051 40.219C70.5113 41.23 71 42.4431 71 43.8585C71 45.2738 70.5113 46.5159 69.5051 47.498C68.5277 48.509 67.3203 49 65.8829 49ZM65.8829 46.9492C66.7453 46.9492 67.464 46.6603 68.0677 46.0537C68.6714 45.4472 68.9589 44.725 68.9589 43.8585C68.9589 42.9919 68.6714 42.2698 68.0677 41.6632C67.464 41.0566 66.7453 40.7678 65.8829 40.7678C65.0204 40.7678 64.3017 41.0566 63.698 41.6632C63.0943 42.2698 62.8068 42.9919 62.8068 43.8585C62.8068 44.725 63.0943 45.4472 63.698 46.0537C64.3017 46.6314 65.0204 46.9492 65.8829 46.9492Z" fill="#009FE3" stroke="#009FE3" stroke-width="0.5" stroke-miterlimit="10"/>
<path d="M16.8676 16.9955C16.8676 9.80315 22.416 3.53512 30.6379 0.300003C19.6849 0.588852 10.9168 7.72343 10.9168 16.5044C10.9168 23.639 16.7239 29.676 24.7733 31.8423L23.3072 32.1601C21.9273 32.4489 21.0936 33.5754 21.4673 34.6731C21.841 35.7707 23.2497 36.4351 24.6296 36.1462L30.2354 34.9619C30.8679 34.8175 31.3853 34.4998 31.7303 34.0954C22.9334 30.9758 16.8676 24.5056 16.8676 16.9955Z" fill="#009FE3" stroke="#009FE3" stroke-width="0.5" stroke-miterlimit="10"/>
<path d="M55.5911 16.9955C55.5911 9.80315 50.0427 3.53512 41.8208 0.300003C52.7738 0.588852 61.5419 7.72343 61.5419 16.5044C61.5419 23.639 55.7348 29.676 47.6854 31.8423L49.1516 32.1601C50.5315 32.4489 51.3652 33.5754 50.9914 34.6731C50.6177 35.7707 49.2091 36.4351 47.8292 36.1462L42.2233 34.9619C41.5909 34.8175 41.0734 34.4998 40.7284 34.0954C49.5253 30.9758 55.5911 24.5056 55.5911 16.9955Z" fill="#009FE3" stroke="#009FE3" stroke-width="0.5" stroke-miterlimit="10"/>
<path d="M36.1575 31.929C36.1575 31.929 43.287 24.39 44.8106 21.126C46.3343 17.862 47.053 16.0423 46.3055 13.5871C45.5868 11.1319 44.0344 7.89674 41.3609 8.64775C38.6873 9.42764 35.64 13.2405 35.4388 14.3959C35.4388 14.3959 35.2376 10.1787 34.2889 9.39876C33.3402 8.61886 29.718 5.93256 27.0444 8.07005C24.3708 10.2075 23.9971 15.5512 25.3195 18.4397C26.6707 21.3282 31.7016 30.2537 36.1575 31.929Z" fill="#E30613"/>
<path d="M23.5371 6.97242C23.5371 6.97242 24.0834 5.03713 28.1368 4.95048C32.1903 4.86382 33.7139 6.56803 33.8864 6.91465C33.8864 6.91465 30.6954 5.64372 27.9356 5.90368C25.147 6.13476 24.3996 7.11685 23.5371 6.97242Z" fill="#E30613"/>
<path d="M26.297 7.23239C26.297 7.23239 22.2147 8.67663 22.8759 13.7893C22.8759 13.7893 22.9909 9.34099 26.297 7.23239Z" fill="#E30613"/>
<path d="M29.5167 6.97242C31.7878 7.03019 33.9152 8.01228 35.6975 10.5253C35.6975 10.5253 38.4861 5.96145 42.8558 6.42361C47.2542 6.85688 49.2666 10.5542 49.3241 11.103C49.3815 11.6518 49.8415 14.1359 48.3179 16.8222C48.3179 16.8222 48.3754 12.9227 48.1454 12.0273C47.9154 11.1319 46.823 8.90771 45.5868 8.50332C44.3507 8.09894 43.6032 8.47444 43.6032 8.47444C43.6032 8.47444 47.7429 10.843 47.5417 14.4247C47.3404 17.9776 46.8517 18.5264 46.5642 19.3929C46.2768 20.2306 46.6217 20.8661 46.478 21.2994C46.3343 21.7326 45.8168 23.0324 44.5231 24.6211C43.2295 26.2387 42.3096 27.2785 42.0221 27.3652C42.0221 27.3652 43.172 25.7476 43.2007 25.3144C43.2007 25.3144 42.2808 26.5275 41.5334 27.7985C40.8147 29.0983 38.3711 31.438 37.8824 31.929C37.3937 32.42 36.6462 33.3733 36.6462 33.3733C36.6462 33.3733 35.6688 33.2866 35.2376 33.4888L35.8125 32.189C35.8125 32.189 33.5414 30.6003 32.8515 29.9937C32.1615 29.3871 28.4243 24.9389 26.6994 22.137C24.9745 19.3641 23.3359 15.7534 24.2271 11.2474C25.1183 6.6258 29.5167 6.97242 29.5167 6.97242ZM34.6339 14.107C34.4614 13.2116 34.8351 12.6628 35.0363 11.6518C35.2376 10.6408 32.3915 8.24336 30.8104 7.86786C28.6543 7.31904 26.3257 8.38779 25.5782 9.8898C23.9109 13.6448 25.377 17.862 26.4119 20.0862C27.4469 22.3103 31.7303 27.914 32.4778 28.6939C33.2252 29.4738 36.1575 31.9579 36.1575 31.9579C36.7612 30.8314 39.7222 27.2496 42.482 23.7257C45.2706 20.2017 46.2768 17.0533 46.3055 13.616C46.3343 10.1786 43.1432 9.10991 42.1083 9.10991C41.0734 9.10991 39.9522 10.0342 39.5498 10.4386C39.1473 10.843 37.9974 11.4785 37.3074 12.4317C36.6175 13.3849 36.4162 14.4536 36.1575 15.4068C35.8988 16.36 35.9275 17.1977 35.5538 17.0821C35.0651 16.9377 34.8063 15.0024 34.6339 14.107Z" fill="#E30613"/>
</svg>
